<?xml version="1.0" encoding="UTF-8" standalone="no"?>
<!DOCTYPE svg PUBLIC "-//W3C//DTD SVG 1.1//EN"
 "http://www.w3.org/Graphics/SVG/1.1/DTD/svg11.dtd">
<!-- Generated by graphviz version 2.26.3 (20100126.1600)
 -->
<!-- Title: dis Pages: 1 -->
<svg width="770pt" height="120pt"
 viewBox="0.00 0.00 770.00 120.00" xmlns="http://www.w3.org/2000/svg" xmlns:xlink="http://www.w3.org/1999/xlink">
<g id="graph1" class="graph" transform="scale(1 1) rotate(0) translate(4 116)">
<title>dis</title>
<polygon fill="white" stroke="white" points="-4,5 -4,-116 767,-116 767,5 -4,5"/>
<!-- libsysfs.so.2 -->
<g id="node1" class="node"><title>libsysfs.so.2</title>
<ellipse fill="none" stroke="black" cx="230" cy="-93" rx="68.7979" ry="18.3848"/>
<text text-anchor="middle" x="230" y="-89.4" font-family="Times Roman,serif" font-size="14.00">libsysfs.so.2</text>
</g>
<!-- linux&#45;gate.so.1 -->
<g id="node3" class="node"><title>linux&#45;gate.so.1</title>
<ellipse fill="none" stroke="black" cx="84" cy="-19" rx="84.1457" ry="18.3848"/>
<text text-anchor="middle" x="84" y="-15.4" font-family="Times Roman,serif" font-size="14.00">linux&#45;gate.so.1</text>
</g>
<!-- libsysfs.so.2&#45;&gt;linux&#45;gate.so.1 -->
<g id="edge2" class="edge"><title>libsysfs.so.2&#45;&gt;linux&#45;gate.so.1</title>
<path fill="none" stroke="black" d="M197.598,-76.577C176.702,-65.986 149.299,-52.0969 126.643,-40.6137"/>
<polygon fill="black" stroke="black" points="128.08,-37.4183 117.578,-36.0192 124.916,-43.6621 128.08,-37.4183"/>
</g>
<!-- libc.so.6 -->
<g id="node5" class="node"><title>libc.so.6</title>
<ellipse fill="none" stroke="black" cx="237" cy="-19" rx="50.9117" ry="18.3848"/>
<text text-anchor="middle" x="237" y="-15.4" font-family="Times Roman,serif" font-size="14.00">libc.so.6</text>
</g>
<!-- libsysfs.so.2&#45;&gt;libc.so.6 -->
<g id="edge4" class="edge"><title>libsysfs.so.2&#45;&gt;libc.so.6</title>
<path fill="none" stroke="black" d="M231.766,-74.3267C232.529,-66.2639 233.439,-56.6477 234.284,-47.7115"/>
<polygon fill="black" stroke="black" points="237.777,-47.9525 235.234,-37.6674 230.808,-47.2933 237.777,-47.9525"/>
</g>
<!-- /lib/ld&#45;linux.so.2 -->
<g id="node7" class="node"><title>/lib/ld&#45;linux.so.2</title>
<ellipse fill="none" stroke="black" cx="394" cy="-19" rx="87.889" ry="18.3848"/>
<text text-anchor="middle" x="394" y="-15.4" font-family="Times Roman,serif" font-size="14.00">/lib/ld&#45;linux.so.2</text>
</g>
<!-- libsysfs.so.2&#45;&gt;/lib/ld&#45;linux.so.2 -->
<g id="edge6" class="edge"><title>libsysfs.so.2&#45;&gt;/lib/ld&#45;linux.so.2</title>
<path fill="none" stroke="black" d="M265.586,-76.9431C289.582,-66.1156 321.485,-51.7202 347.488,-39.9869"/>
<polygon fill="black" stroke="black" points="349.101,-43.0993 356.776,-35.7961 346.222,-36.7188 349.101,-43.0993"/>
</g>
<!-- libncurses.so.5 -->
<g id="node8" class="node"><title>libncurses.so.5</title>
<ellipse fill="none" stroke="black" cx="400" cy="-93" rx="82.939" ry="18.3848"/>
<text text-anchor="middle" x="400" y="-89.4" font-family="Times Roman,serif" font-size="14.00">libncurses.so.5</text>
</g>
<!-- libncurses.so.5&#45;&gt;linux&#45;gate.so.1 -->
<g id="edge8" class="edge"><title>libncurses.so.5&#45;&gt;linux&#45;gate.so.1</title>
<path fill="none" stroke="black" d="M342.775,-79.5992C289,-67.0064 208.497,-48.1544 151.585,-34.8269"/>
<polygon fill="black" stroke="black" points="152.134,-31.3609 141.6,-32.4885 150.538,-38.1765 152.134,-31.3609"/>
</g>
<!-- libncurses.so.5&#45;&gt;libc.so.6 -->
<g id="edge10" class="edge"><title>libncurses.so.5&#45;&gt;libc.so.6</title>
<path fill="none" stroke="black" d="M363.42,-76.393C338.173,-64.9315 304.564,-49.6733 278.346,-37.7705"/>
<polygon fill="black" stroke="black" points="279.603,-34.4973 269.05,-33.5503 276.709,-40.8712 279.603,-34.4973"/>
</g>
<!-- libncurses.so.5&#45;&gt;/lib/ld&#45;linux.so.2 -->
<g id="edge16" class="edge"><title>libncurses.so.5&#45;&gt;/lib/ld&#45;linux.so.2</title>
<path fill="none" stroke="black" d="M398.486,-74.3267C397.832,-66.2639 397.053,-56.6477 396.328,-47.7115"/>
<polygon fill="black" stroke="black" points="399.81,-47.3518 395.514,-37.6674 392.833,-47.9175 399.81,-47.3518"/>
</g>
<!-- libdl.so.2 -->
<g id="node12" class="node"><title>libdl.so.2</title>
<ellipse fill="none" stroke="black" cx="708" cy="-19" rx="53.9477" ry="18.3848"/>
<text text-anchor="middle" x="708" y="-15.4" font-family="Times Roman,serif" font-size="14.00">libdl.so.2</text>
</g>
<!-- libncurses.so.5&#45;&gt;libdl.so.2 -->
<g id="edge12" class="edge"><title>libncurses.so.5&#45;&gt;libdl.so.2</title>
<path fill="none" stroke="black" d="M461.463,-80.4857C511.194,-70.0522 582.915,-54.3081 645,-38 649.344,-36.859 653.839,-35.6204 658.337,-34.341"/>
<polygon fill="black" stroke="black" points="659.503,-37.6472 668.13,-31.4973 657.551,-30.9249 659.503,-37.6472"/>
</g>
<!-- libtinfo.so.5 -->
<g id="node14" class="node"><title>libtinfo.so.5</title>
<ellipse fill="none" stroke="black" cx="568" cy="-19" rx="68.0887" ry="18.3848"/>
<text text-anchor="middle" x="568" y="-15.4" font-family="Times Roman,serif" font-size="14.00">libtinfo.so.5</text>
</g>
<!-- libncurses.so.5&#45;&gt;libtinfo.so.5 -->
<g id="edge14" class="edge"><title>libncurses.so.5&#45;&gt;libtinfo.so.5</title>
<path fill="none" stroke="black" d="M437.702,-76.393C462.861,-65.311 496.079,-50.6796 522.677,-38.9637"/>
<polygon fill="black" stroke="black" points="524.409,-42.0253 532.15,-34.7912 521.587,-35.6192 524.409,-42.0253"/>
</g>
</g>
</svg>
